<?xml version="1.0" encoding="UTF-8"?>
<svg version="1.1" xmlns="http://www.w3.org/2000/svg" width="500" height="500">
<path d="M0 0 C165 0 330 0 500 0 C500 165 500 330 500 500 C335 500 170 500 0 500 C0 335 0 170 0 0 Z " fill="#FEFEFF" transform="translate(0,0)"/>
<path d="M0 0 C1.17626953 -0.01224609 2.35253906 -0.02449219 3.56445312 -0.03710938 C10.22875027 -0.04828483 16.12452821 0.44546058 22.5625 2.1875 C22.5625 2.5175 22.5625 2.8475 22.5625 3.1875 C16.6225 3.6825 16.6225 3.6825 10.5625 4.1875 C10.8925 4.1875 11.2225 4.1875 11.5625 4.1875 C15.5625 4.1875 19.5625 4.1875 23.5625 4.1875 C23.5625 3.8575 23.5625 3.5275 23.5625 3.1875 C34.24265041 4.33180183 40.27655184 6.25802856 48.5625 13.1875 C52.06205506 15.5205367 54.99990544 15.76963313 59.0625 16.1875 C66.15709459 16.91722973 66.15709459 16.91722973 69.5625 19.1875 C70.21413361 21.74224897 70.50927339 24.26083442 70.83984375 26.875 C71.32784658 29.34370104 71.32784658 29.34370104 73.51953125 30.34375 C74.19371094 30.6221875 74.86789062 30.900625 75.5625 31.1875 C79.67433056 37.06154366 79.15084239 43.51036008 78.0625 50.3125 C77.8975 50.93125 77.7325 51.55 77.5625 52.1875 C78.5525 51.1975 78.5525 51.1975 79.5625 50.1875 C79.5625 51.5075 79.5625 52.8275 79.5625 54.1875 C80.8825 54.1875 82.2025 54.1875 83.5625 54.1875 C82.41076645 56.65550047 81.51466435 58.23533565 79.5625 60.1875 C77.43359375 60.41796875 77.43359375 60.41796875 75 60.375 C74.19433594 60.36855469 73.38867188 60.36210937 72.55859375 60.35546875 C70.5625 60.1875 70.5625 60.1875 69.5625 59.1875 C67.85025703 59.22611466 66.13969937 59.3411144 64.43310547 59.48535156 C63.3308815 59.57594849 62.22865753 59.66654541 61.09303284 59.7598877 C59.2796769 59.91741516 59.2796769 59.91741516 57.4296875 60.078125 C56.18287704 60.18249878 54.93606659 60.28687256 53.651474 60.39440918 C50.27786281 60.67816806 46.90474178 60.96685254 43.5317421 61.25773621 C40.74404194 61.49702447 37.95594596 61.73150203 35.16783619 61.96596146 C20.89017529 63.16754223 6.62551476 64.44530461 -7.625 65.9375 C-41.39310208 69.34391106 -75.54504571 68.30972536 -109.4375 68.1875 C-108.9425 67.1975 -108.9425 67.1975 -108.4375 66.1875 C-105.73150158 65.71152634 -103.10154596 65.34656371 -100.375 65.0625 C-99.61638672 64.97613281 -98.85777344 64.88976562 -98.07617188 64.80078125 C-96.19753014 64.58810483 -94.31761364 64.38674541 -92.4375 64.1875 C-96.16962806 60.79912058 -98.56579725 58.66770665 -103.6875 58 C-108.2547232 57.3702768 -108.2547232 57.3702768 -110.4375 55.1875 C-110.5625 52.5625 -110.5625 52.5625 -110.4375 50.1875 C-105.73793233 50.55344994 -101.33218379 50.90983951 -96.8125 52.3125 C-87.181944 54.93013591 -74.96588716 52.26678788 -65.4375 50.1875 C-66.44167969 50.331875 -67.44585937 50.47625 -68.48046875 50.625 C-82.44936104 52.5579648 -94.61681123 52.66857303 -108.4375 49.1875 C-108.4375 48.1975 -108.4375 47.2075 -108.4375 46.1875 C-109.0975 46.1875 -109.7575 46.1875 -110.4375 46.1875 C-110.4375 44.2075 -110.4375 42.2275 -110.4375 40.1875 C-109.80070312 40.2596875 -109.16390625 40.331875 -108.5078125 40.40625 C-96.18095239 41.5833507 -83.80665484 41.27752296 -71.4375 41.1875 C-72.63125244 41.14991577 -72.63125244 41.14991577 -73.84912109 41.11157227 C-77.50370168 40.99453014 -81.15809175 40.87230038 -84.8125 40.75 C-86.69001953 40.69102539 -86.69001953 40.69102539 -88.60546875 40.63085938 C-95.5865422 40.39328358 -102.49979936 40.01245273 -109.4375 39.1875 C-109.4375 38.5275 -109.4375 37.8675 -109.4375 37.1875 C-108.48875 36.89875 -107.54 36.61 -106.5625 36.3125 C-103.38538422 35.41924891 -103.38538422 35.41924891 -101.4375 33.1875 C-98.8915393 32.98787589 -96.45674064 32.90763452 -93.91015625 32.921875 C-93.16543564 32.91996155 -92.42071503 32.9180481 -91.65342712 32.91607666 C-90.07729759 32.91471486 -88.50115685 32.91841097 -86.92504883 32.92675781 C-84.51292666 32.93744274 -82.10155182 32.92687054 -79.68945312 32.9140625 C-78.15885252 32.91538439 -76.62825238 32.9179474 -75.09765625 32.921875 C-74.37570572 32.91782654 -73.65375519 32.91377808 -72.90992737 32.90960693 C-69.20232331 32.94428514 -67.60533652 33.07560899 -64.4375 35.1875 C-64.4375 35.8475 -64.4375 36.5075 -64.4375 37.1875 C-52.35716266 37.31058932 -43.29168217 34.27581306 -32.4375 29.1875 C-34.37510691 29.31083176 -36.31257243 29.43638238 -38.25 29.5625 C-38.90307129 29.60431396 -39.55614258 29.64612793 -40.22900391 29.68920898 C-44.67909785 29.98164944 -49.12253128 30.32359329 -53.56640625 30.69921875 C-65.09430406 31.65351493 -76.5532928 32.37413631 -88.125 32.375 C-89.14513184 32.3757251 -90.16526367 32.3764502 -91.21630859 32.37719727 C-96.70907019 32.33632987 -102.00343205 31.99326334 -107.4375 31.1875 C-105.92147692 26.94263537 -103.27660839 25.36058022 -99.4375 23.1875 C-94.23819112 21.26183004 -89.89662545 20.99595174 -84.4375 21.1875 C-86.06116466 24.43482932 -89.19137839 24.88905136 -92.4375 26.1875 C-91.19355469 25.74664062 -89.94960937 25.30578125 -88.66796875 24.8515625 C-83.11032755 23.00299785 -77.4813707 21.74514209 -71.75 20.5625 C-70.69941406 20.34376221 -69.64882812 20.12502441 -68.56640625 19.8996582 C-60.84691189 18.34708441 -53.32417179 17.34023484 -45.4375 17.1875 C-48.4075 16.8575 -51.3775 16.5275 -54.4375 16.1875 C-50.37387249 12.62585001 -46.17050405 10.37358653 -41.3125 8.125 C-40.55912354 7.77429443 -39.80574707 7.42358887 -39.02954102 7.06225586 C-26.15646922 1.20585465 -14.00904309 0.00765103 0 0 Z " fill="#5574FF" transform="translate(235.4375,185.8125)"/>
<path d="M0 0 C1.17626953 -0.01224609 2.35253906 -0.02449219 3.56445312 -0.03710938 C10.22875027 -0.04828483 16.12452821 0.44546058 22.5625 2.1875 C22.5625 2.5175 22.5625 2.8475 22.5625 3.1875 C18.6025 3.5175 14.6425 3.8475 10.5625 4.1875 C10.8925 4.1875 11.2225 4.1875 11.5625 4.1875 C15.5625 4.1875 19.5625 4.1875 23.5625 4.1875 C23.5625 3.8575 23.5625 3.5275 23.5625 3.1875 C34.85167657 4.39705463 40.92126577 6.5732977 49.5625 14.1875 C46.82143649 16.92856351 45.01028934 16.51568924 41.1875 16.6875 C36.80488967 16.74306021 36.80488967 16.74306021 32.79133606 18.19302368 C29.70581292 19.56974212 27.11042355 19.43940436 23.73706055 19.44287109 C23.05831375 19.44649155 22.37956696 19.450112 21.68025208 19.45384216 C20.20816578 19.46072495 18.73605402 19.46324369 17.26395226 19.46189499 C14.91959536 19.46092525 12.57569149 19.47393014 10.23139954 19.49087524 C3.56633142 19.53697271 -3.09869396 19.56168683 -9.76391602 19.56835938 C-13.84714902 19.57343147 -17.92991675 19.59797665 -22.01299095 19.63368607 C-23.55519985 19.64336563 -25.09747381 19.64588213 -26.63970375 19.64051437 C-37.25900541 19.60533251 -46.28114062 21.01384785 -56.4375 24.1875 C-58.76781506 24.8652205 -61.10238428 25.52642443 -63.4375 26.1875 C-63.4375 27.1775 -63.4375 28.1675 -63.4375 29.1875 C-61.4575 29.5175 -59.4775 29.8475 -57.4375 30.1875 C-57.4375 30.5175 -57.4375 30.8475 -57.4375 31.1875 C-67.46039286 31.95955227 -77.44651247 32.29473635 -87.5 32.3125 C-88.55759521 32.31701172 -89.61519043 32.32152344 -90.70483398 32.32617188 C-96.37751727 32.31538132 -101.82737994 32.03608959 -107.4375 31.1875 C-105.92147692 26.94263537 -103.27660839 25.36058022 -99.4375 23.1875 C-94.23819112 21.26183004 -89.89662545 20.99595174 -84.4375 21.1875 C-86.06116466 24.43482932 -89.19137839 24.88905136 -92.4375 26.1875 C-91.19355469 25.74664062 -89.94960937 25.30578125 -88.66796875 24.8515625 C-83.11032755 23.00299785 -77.4813707 21.74514209 -71.75 20.5625 C-70.69941406 20.34376221 -69.64882812 20.12502441 -68.56640625 19.8996582 C-60.84691189 18.34708441 -53.32417179 17.34023484 -45.4375 17.1875 C-48.4075 16.8575 -51.3775 16.5275 -54.4375 16.1875 C-50.37387249 12.62585001 -46.17050405 10.37358653 -41.3125 8.125 C-40.55912354 7.77429443 -39.80574707 7.42358887 -39.02954102 7.06225586 C-26.15646922 1.20585465 -14.00904309 0.00765103 0 0 Z " fill="#5876FF" transform="translate(235.4375,185.8125)"/>
<path d="M0 0 C6.09706897 5.95456652 10.55479853 11.81894179 12.33984375 20.28515625 C12.33984375 21.27515625 12.33984375 22.26515625 12.33984375 23.28515625 C9.33984375 22.28515625 9.33984375 22.28515625 8.15234375 20.22265625 C7.75015625 19.26359375 7.75015625 19.26359375 7.33984375 18.28515625 C7.33984375 19.93515625 7.33984375 21.58515625 7.33984375 23.28515625 C4.15116865 23.93590627 1.50643173 24.11714195 -1.66015625 23.28515625 C-4.58554979 20.30873841 -6.56779105 16.87760339 -8.66015625 13.28515625 C-20.78747623 -3.92781404 -46.49550962 -10.65657212 -66.04248047 -14.31469727 C-78.73704387 -16.25522976 -91.74676896 -16.00600677 -104.56079102 -16.19165039 C-107.17097245 -16.23113769 -109.78069455 -16.2826259 -112.390625 -16.3359375 C-113.19259811 -16.34435165 -113.99457123 -16.35276581 -114.82084656 -16.36143494 C-120.43318682 -16.48787432 -120.43318682 -16.48787432 -122.66015625 -18.71484375 C-116.27130486 -21.15242734 -110.27712266 -22.36772913 -103.47265625 -22.90234375 C-102.04143433 -23.01968872 -102.04143433 -23.01968872 -100.58129883 -23.1394043 C-66.54533644 -25.69998987 -26.95301158 -23.62948234 0 0 Z " fill="#5674FF" transform="translate(372.66015625,169.71484375)"/>
<path d="M0 0 C14.20289855 -0.92071611 14.20289855 -0.92071611 18.05859375 1.0546875 C19.06471098 2.06353134 20.04486636 3.09864538 21.00390625 4.15234375 C39.28425307 21.073291 69.13590175 21.23374652 92.34716797 21.53173828 C94.72905095 21.56528593 97.11051638 21.6103215 99.4921875 21.65625 C100.21912811 21.6615271 100.94606873 21.6668042 101.69503784 21.67224121 C106.77408987 21.77408987 106.77408987 21.77408987 109 24 C81.69685739 33.71322562 45.10639345 29.27497981 19.16015625 17.6328125 C11.91605777 13.88987905 5.18730642 8.32150847 0 2 C0 1.34 0 0.68 0 0 Z " fill="#5674FF" transform="translate(132,255)"/>
<path d="M0 0 C3.526875 -0.061875 7.05375 -0.12375 10.6875 -0.1875 C12.342052 -0.22846802 12.342052 -0.22846802 14.0300293 -0.27026367 C23.16814473 -0.34799574 23.16814473 -0.34799574 27 3 C29.34168764 6.51253146 29.49623677 7.86469356 29 12 C28.319375 12.845625 27.63875 13.69125 26.9375 14.5625 C24.76017674 16.78275818 24.76017674 16.78275818 25 19.3125 C26.38804961 23.04288334 28.14819635 26.4755995 30 30 C26.37 30 22.74 30 19 30 C14 21.25 14 21.25 14 19 C12.68 19 11.36 19 10 19 C10 22.63 10 26.26 10 30 C6.7 30 3.4 30 0 30 C0 20.1 0 10.2 0 0 Z " fill="#5775FF" transform="translate(232,306)"/>
<path d="M0 0 C9 0 9 0 11.77734375 2.3359375 C12.49019531 3.33882813 13.20304687 4.34171875 13.9375 5.375 C14.66839844 6.37273437 15.39929688 7.37046875 16.15234375 8.3984375 C17.06693359 9.68621094 17.06693359 9.68621094 18 11 C18.66 11.66 19.32 12.32 20 13 C20.33 8.71 20.66 4.42 21 0 C23.97 0 26.94 0 30 0 C30 9.9 30 19.8 30 30 C21 30 21 30 17.71484375 27.375 C16.76289584 26.27205345 15.83706344 25.14607222 14.9375 24 C14.45345703 23.42765625 13.96941406 22.8553125 13.47070312 22.265625 C12.29031663 20.8631856 11.14172378 19.43409043 10 18 C9.67 21.96 9.34 25.92 9 30 C6.03 30 3.06 30 0 30 C0 20.1 0 10.2 0 0 Z " fill="#5574FF" transform="translate(311,306)"/>
<path d="M0 0 C8.58 0 17.16 0 26 0 C26 2.31 26 4.62 26 7 C20.72 7 15.44 7 10 7 C10 8.32 10 9.64 10 11 C14.62 11 19.24 11 24 11 C24 13.31 24 15.62 24 18 C19.38 18 14.76 18 10 18 C10 19.65 10 21.3 10 23 C15.61 23 21.22 23 27 23 C27 25.31 27 27.62 27 30 C18.09 30 9.18 30 0 30 C0 20.1 0 10.2 0 0 Z " fill="#5674FF" transform="translate(54,306)"/>
<path d="M0 0 C3.96 0 7.92 0 12 0 C16.28343352 9.82670042 19.70436229 19.80730604 23 30 C19.37 30 15.74 30 12 30 C12 28.68 12 27.36 12 26 C8.04 26 4.08 26 0 26 C0 27.32 0 28.64 0 30 C-3.3 30 -6.6 30 -10 30 C-9.33372522 26.17736359 -8.26037893 22.68695622 -6.93359375 19.04296875 C-6.53076172 17.93115234 -6.12792969 16.81933594 -5.71289062 15.67382812 C-5.29201172 14.52333984 -4.87113281 13.37285156 -4.4375 12.1875 C-4.01275391 11.01767578 -3.58800781 9.84785156 -3.15039062 8.64257812 C-2.10345241 5.76055721 -1.05214824 2.88012296 0 0 Z " fill="#5674FF" transform="translate(100,306)"/>
<path d="M0 0 C1.51400391 0.01740234 1.51400391 0.01740234 3.05859375 0.03515625 C4.07050781 0.04417969 5.08242188 0.05320312 6.125 0.0625 C7.29869141 0.07990234 7.29869141 0.07990234 8.49609375 0.09765625 C11.3514951 6.3196921 13.89635898 12.60616091 16.24609375 19.03515625 C16.56191406 19.88400391 16.87773437 20.73285156 17.203125 21.60742188 C17.50089844 22.41759766 17.79867188 23.22777344 18.10546875 24.0625 C18.37327148 24.79073975 18.64107422 25.51897949 18.91699219 26.26928711 C19.49609375 28.09765625 19.49609375 28.09765625 19.49609375 30.09765625 C16.19609375 30.09765625 12.89609375 30.09765625 9.49609375 30.09765625 C9.16609375 28.77765625 8.83609375 27.45765625 8.49609375 26.09765625 C4.86609375 26.42765625 1.23609375 26.75765625 -2.50390625 27.09765625 C-2.83390625 28.08765625 -3.16390625 29.07765625 -3.50390625 30.09765625 C-6.80390625 30.09765625 -10.10390625 30.09765625 -13.50390625 30.09765625 C-11.6061999 23.28823936 -9.31399893 16.66735955 -6.87890625 10.03515625 C-6.5655835 9.17752686 -6.25226074 8.31989746 -5.92944336 7.4362793 C-5.63175049 6.63230713 -5.33405762 5.82833496 -5.02734375 5 C-4.75841309 4.27288818 -4.48948242 3.54577637 -4.21240234 2.79663086 C-3.1141689 0.16306554 -2.97412739 0.11599561 0 0 Z " fill="#5573FF" transform="translate(402.50390625,305.90234375)"/>
<path d="M0 0 C1.83498047 -0.03867187 1.83498047 -0.03867187 3.70703125 -0.078125 C7.44181539 0.27397586 9.23847895 0.98396587 12.1875 3.25 C14.1875 6.25 14.1875 6.25 14.1875 9.25 C12.72957116 9.30399736 11.27107288 9.34279177 9.8125 9.375 C9.00039062 9.39820313 8.18828125 9.42140625 7.3515625 9.4453125 C5.1875 9.25 5.1875 9.25 3.1875 7.25 C0.60395782 7.08312552 0.60395782 7.08312552 -1.8125 7.25 C-1.8125 7.91 -1.8125 8.57 -1.8125 9.25 C-0.47445312 9.61351562 -0.47445312 9.61351562 0.890625 9.984375 C2.06109375 10.31953125 3.2315625 10.6546875 4.4375 11 C5.59765625 11.32484375 6.7578125 11.6496875 7.953125 11.984375 C11.31420431 13.29957995 12.97318196 14.43226682 15.1875 17.25 C15.71526087 20.79353726 15.41997375 22.73855774 13.9375 26 C12.00404069 28.48587626 11.10109946 29.15135037 8.1875 30.25 C-5.92103613 31.76276629 -5.92103613 31.76276629 -10.75 28.0625 C-12.8125 25.25 -12.8125 25.25 -13.1875 22.4375 C-13.06375 21.715625 -12.94 20.99375 -12.8125 20.25 C-11.35507537 20.16903197 -9.89637193 20.11082226 -8.4375 20.0625 C-7.62539062 20.02769531 -6.81328125 19.99289062 -5.9765625 19.95703125 C-5.26242188 20.05371094 -4.54828125 20.15039062 -3.8125 20.25 C-3.1525 21.24 -2.4925 22.23 -1.8125 23.25 C1.77107241 23.50015873 1.77107241 23.50015873 5.1875 23.25 C4.8575 22.59 4.5275 21.93 4.1875 21.25 C0.9497901 20.21591971 -2.32133437 19.38715222 -5.61328125 18.54296875 C-9.31901824 17.04528994 -10.6952631 15.59759249 -12.8125 12.25 C-13.4727967 8.28821982 -13.17800574 6.79825861 -10.9375 3.4375 C-7.40965703 -0.19410306 -4.97045393 0.06245597 0 0 Z " fill="#5674FF" transform="translate(144.8125,305.75)"/>
<path d="M0 0 C8.58 0 17.16 0 26 0 C26 2.31 26 4.62 26 7 C20.39 7 14.78 7 9 7 C9 8.32 9 9.64 9 11 C13.62 11 18.24 11 23 11 C23 13.31 23 15.62 23 18 C18.38 18 13.76 18 9 18 C9 19.65 9 21.3 9 23 C14.61 23 20.22 23 26 23 C26 25.31 26 27.62 26 30 C17.42 30 8.84 30 0 30 C0 20.1 0 10.2 0 0 Z " fill="#5271FF" transform="translate(273,306)"/>
<path d="M0 0 C3.60409539 -0.05906119 7.20806309 -0.09394639 10.8125 -0.125 C11.81732422 -0.14175781 12.82214844 -0.15851563 13.85742188 -0.17578125 C25.17934324 -0.24859103 34.71095646 1.92250273 45.1875 6.125 C46.13947266 6.49753906 47.09144531 6.87007812 48.07226562 7.25390625 C50.38515608 8.16046633 52.69409856 9.0758412 55 10 C55 10.66 55 11.32 55 12 C56.23234375 12.04898438 57.4646875 12.09796875 58.734375 12.1484375 C84.26098359 13.26098359 84.26098359 13.26098359 88 17 C83.23692563 17.95261487 78.8333472 18.08333357 74 18 C74.515625 18.94875 75.03125 19.8975 75.5625 20.875 C76.036875 21.90625 76.51125 22.9375 77 24 C76.67 24.66 76.34 25.32 76 26 C75.52691406 25.52949219 75.05382812 25.05898437 74.56640625 24.57421875 C73.57447266 23.64029297 73.57447266 23.64029297 72.5625 22.6875 C71.92441406 22.07261719 71.28632813 21.45773438 70.62890625 20.82421875 C63.18848318 15.66125058 54.21456975 15.20137867 45.4375 14.3125 C44.23802734 14.18294922 43.03855469 14.05339844 41.80273438 13.91992188 C38.86931471 13.60437474 35.93524879 13.297964 33 13 C33 12.67 33 12.34 33 12 C32.42556152 11.9906543 31.85112305 11.98130859 31.25927734 11.97167969 C28.63034696 11.91764969 26.00313433 11.83407106 23.375 11.75 C22.01955078 11.72873047 22.01955078 11.72873047 20.63671875 11.70703125 C14.92180251 11.49845766 11.54461015 10.77120511 7 7 C6.30132812 6.44957031 5.60265625 5.89914063 4.8828125 5.33203125 C4.30273438 4.83058594 3.72265625 4.32914063 3.125 3.8125 C2.52945312 3.30332031 1.93390625 2.79414063 1.3203125 2.26953125 C0.88460938 1.85058594 0.44890625 1.43164062 0 1 C0 0.67 0 0.34 0 0 Z " fill="#5372FF" transform="translate(277,189)"/>
<path d="M0 0 C9.9 0 19.8 0 30 0 C30 2.64 30 5.28 30 8 C26.7 8 23.4 8 20 8 C20 15.26 20 22.52 20 30 C16.7 30 13.4 30 10 30 C10 22.74 10 15.48 10 8 C6.7 8 3.4 8 0 8 C0 5.36 0 2.72 0 0 Z " fill="#5876FF" transform="translate(351,306)"/>
<path d="M0 0 C3.7504739 -0.4138001 7.26541982 -0.61368804 11 0 C13.43210856 1.96320627 14.81984899 4.11808428 16 7 C16 7.66 16 8.32 16 9 C16.66 9 17.32 9 18 9 C18.28875 8.2575 18.5775 7.515 18.875 6.75 C19.81379336 4.4551718 20.89116553 2.21766895 22 0 C25.63 0 29.26 0 33 0 C32.08702392 1.71030852 31.16942376 3.41814895 30.25 5.125 C29.43208984 6.64867187 29.43208984 6.64867187 28.59765625 8.203125 C27 11 27 11 24.6875 13.875 C21.9650971 18.91648685 22.16758378 24.35242661 22 30 C18.7 30 15.4 30 12 30 C12.04382813 29.319375 12.08765625 28.63875 12.1328125 27.9375 C12.10452832 17.30264706 6.79980348 10.43790854 1 2 C0.67 1.34 0.34 0.68 0 0 Z " fill="#5573FF" transform="translate(168,306)"/>
<path d="M0 0 C4.35169313 1.3925418 5.51912453 3.27732075 8.125 7 C9.88081591 12.26744772 9.59903705 16.57788886 7.875 21.75 C6.18243081 24.89334278 5.02407676 26.92923088 2.125 29 C-0.75 29.6875 -0.75 29.6875 -3.875 29 C-6.81957901 27.14625367 -8.41585692 25.15314823 -9.875 22 C-10.77034191 16.14636311 -11.36594639 9.45582018 -8.0625 4.25 C-5.38622448 1.49725947 -3.92751472 0 0 0 Z " fill="#EBEEFF" transform="translate(213.875,219)"/>
<path d="M0 0 C3.3 0 6.6 0 10 0 C10 7.26 10 14.52 10 22 C14.95 22 19.9 22 25 22 C25 24.64 25 27.28 25 30 C16.75 30 8.5 30 0 30 C0 20.1 0 10.2 0 0 Z " fill="#5674FF" transform="translate(432,306)"/>
<path d="M0 0 C2.27024968 -0.08097324 4.54132075 -0.13917704 6.8125 -0.1875 C8.07707031 -0.22230469 9.34164063 -0.25710937 10.64453125 -0.29296875 C14 0 14 0 15.76171875 1.44921875 C16.17035156 1.96097656 16.57898438 2.47273437 17 3 C20.61010846 4.20336949 23.91072402 4.14330286 27.66796875 4.1328125 C28.42161209 4.13376923 29.17525543 4.13472595 29.95173645 4.13571167 C31.54798465 4.13639205 33.14423563 4.13454764 34.74047852 4.13037109 C37.16103498 4.12505809 39.58140272 4.13030147 42.00195312 4.13671875 C43.55729207 4.13605722 45.1126309 4.1347745 46.66796875 4.1328125 C47.74028999 4.13584885 47.74028999 4.13584885 48.83427429 4.13894653 C54.66717151 4.11231677 60.42756465 3.85747845 66 2 C65.625 4.4375 65.625 4.4375 65 7 C49.16022177 14.91988911 16.97290087 11.1707617 0 8 C0 5.36 0 2.72 0 0 Z " fill="#5C79FF" transform="translate(318,230)"/>
<path d="M0 0 C2.58493676 2.44521045 3.02235788 3.70579452 3.3125 7.1875 C2.6525 6.8575 1.9925 6.5275 1.3125 6.1875 C0.9825 6.8475 0.6525 7.5075 0.3125 8.1875 C-2.41833902 8.32298815 -5.14241807 8.42179855 -7.875 8.5 C-9.02838867 8.5628418 -9.02838867 8.5628418 -10.20507812 8.62695312 C-14.49257345 8.71895946 -16.1423388 8.62202768 -19.61328125 5.85546875 C-23.6875 0.61499529 -23.6875 0.61499529 -23.6875 -2.8125 C-21.60585982 -3.17648622 -19.52209438 -3.52833287 -17.4375 -3.875 C-15.69726562 -4.17083984 -15.69726562 -4.17083984 -13.921875 -4.47265625 C-8.23823246 -5.06985057 -4.63775305 -3.12778694 0 0 Z " fill="#5A77FF" transform="translate(376.6875,210.8125)"/>
<path d="M0 0 C0 0.66 0 1.32 0 2 C1.23234375 2.04898438 2.4646875 2.09796875 3.734375 2.1484375 C29.26098359 3.26098359 29.26098359 3.26098359 33 7 C28.23692563 7.95261487 23.8333472 8.08333357 19 8 C19.515625 8.94875 20.03125 9.8975 20.5625 10.875 C21.036875 11.90625 21.51125 12.9375 22 14 C21.67 14.66 21.34 15.32 21 16 C20.52691406 15.52949219 20.05382812 15.05898437 19.56640625 14.57421875 C18.90511719 13.95160156 18.24382812 13.32898438 17.5625 12.6875 C16.92441406 12.07261719 16.28632813 11.45773438 15.62890625 10.82421875 C8.18848318 5.66125058 -0.78543025 5.20137867 -9.5625 4.3125 C-10.76197266 4.18294922 -11.96144531 4.05339844 -13.19726562 3.91992188 C-16.13068529 3.60437474 -19.06475121 3.297964 -22 3 C-22 2.67 -22 2.34 -22 2 C-28.6 1.67 -35.2 1.34 -42 1 C-42 0.67 -42 0.34 -42 0 C-36.50091272 -0.16760643 -31.00168215 -0.32816705 -25.50219727 -0.48217773 C-23.63104709 -0.53557425 -21.75995098 -0.59090179 -19.88891602 -0.64819336 C-17.2008022 -0.73016978 -14.51257095 -0.80521854 -11.82421875 -0.87890625 C-10.98662521 -0.90594131 -10.14903168 -0.93297638 -9.28605652 -0.96083069 C-5.9091632 -1.04776959 -3.23102004 -1.07700668 0 0 Z " fill="#5D7AFF" transform="translate(332,199)"/>
<path d="M0 0 C0.99 0.33 1.98 0.66 3 1 C-14.45714891 9.39049587 -33.24452844 14.00972809 -52.24145508 17.40258789 C-53.74421997 17.67703735 -53.74421997 17.67703735 -55.27734375 17.95703125 C-56.16671631 18.11147705 -57.05608887 18.26592285 -57.97241211 18.42504883 C-58.64151611 18.61478271 -59.31062012 18.8045166 -60 19 C-60.33 19.66 -60.66 20.32 -61 21 C-63.1171875 21.59765625 -63.1171875 21.59765625 -65.875 22.0625 C-66.75929687 22.21847656 -67.64359375 22.37445313 -68.5546875 22.53515625 C-77.95710357 23.8037362 -87.20414239 24.13172159 -96.6875 24.0625 C-97.87794922 24.05798828 -99.06839844 24.05347656 -100.29492188 24.04882812 C-103.19666936 24.03717452 -106.09830626 24.02081559 -109 24 C-109 23.67 -109 23.34 -109 23 C-108.29504395 22.97494385 -107.59008789 22.9498877 -106.86376953 22.92407227 C-103.61738553 22.80681958 -100.37120183 22.6846885 -97.125 22.5625 C-96.01640625 22.52318359 -94.9078125 22.48386719 -93.765625 22.44335938 C-87.1434301 22.19015781 -80.58403955 21.75898051 -74 21 C-74.80179688 21.0721875 -75.60359375 21.144375 -76.4296875 21.21875 C-89.60946842 22.29465048 -102.8581792 22.69571881 -116 21 C-116 20.67 -116 20.34 -116 20 C-115.00073486 19.9906543 -114.00146973 19.98130859 -112.97192383 19.97167969 C-75.25602402 19.56017047 -34.46048482 17.23024241 0 0 Z " fill="#AEBCFF" transform="translate(311,271)"/>
<path d="M0 0 C-6.01757004 6.01757004 -17.17530034 9.36473545 -25.5559082 9.48779297 C-28.38062183 9.4169947 -31.18637662 9.25801786 -34 9 C-34 8.34 -34 7.68 -34 7 C-37.29734646 5.90088451 -39.72958745 5.8860544 -43.19921875 5.90234375 C-45.01196289 5.90717773 -45.01196289 5.90717773 -46.86132812 5.91210938 C-48.12396484 5.92048828 -49.38660156 5.92886719 -50.6875 5.9375 C-51.96173828 5.94201172 -53.23597656 5.94652344 -54.54882812 5.95117188 C-57.69926564 5.96297127 -60.84960949 5.97943403 -64 6 C-64 5.67 -64 5.34 -64 5 C-59.25005773 3.87125288 -54.49596124 3.603137 -49.640625 3.28125 C-48.73681091 3.21844849 -47.83299683 3.15564697 -46.90179443 3.09094238 C-44.01806375 2.89090692 -41.13406646 2.69512979 -38.25 2.5 C-35.38025247 2.30440125 -32.51058209 2.10782523 -29.64105225 1.90905762 C-27.8591633 1.78576512 -26.07714587 1.66431019 -24.29498291 1.54504395 C-19.4721861 1.21286001 -14.678316 0.7745634 -9.87776184 0.20301819 C-6.57052355 -0.15455087 -3.32151593 -0.0603912 0 0 Z " fill="#E7ECFF" transform="translate(205,214)"/>
<path d="M0 0 C2.25 2.5 2.25 2.5 4 5 C-2.56108516 5.28940918 -9.12238114 5.5736349 -15.68383789 5.85449219 C-17.90947385 5.95034297 -20.13506162 6.04732006 -22.3605957 6.14550781 C-34.57988118 6.68382653 -46.76708028 7.17885475 -59 7 C-59 6.67 -59 6.34 -59 6 C-58.07662842 5.88406494 -57.15325684 5.76812988 -56.2019043 5.64868164 C-52.7743426 5.21686454 -49.34714832 4.78232924 -45.92016602 4.34594727 C-44.43723119 4.15768184 -42.95415849 3.97049912 -41.47094727 3.78442383 C-39.33833182 3.5166867 -37.20624347 3.24505241 -35.07421875 2.97265625 C-33.79119873 2.81031494 -32.50817871 2.64797363 -31.1862793 2.48071289 C-27.98834779 2.09120661 -27.98834779 2.09120661 -25 1 C-23.42128756 0.85298448 -21.8379366 0.75283516 -20.25390625 0.68359375 C-19.33416016 0.64169922 -18.41441406 0.59980469 -17.46679688 0.55664062 C-16.50837891 0.51732422 -15.54996094 0.47800781 -14.5625 0.4375 C-13.13067383 0.37272461 -13.13067383 0.37272461 -11.66992188 0.30664062 C-7.77329248 0.13485081 -3.90146782 0 0 0 Z " fill="#EAEEFF" transform="translate(280,239)"/>
<path d="M0 0 C1.68802734 0.01353516 1.68802734 0.01353516 3.41015625 0.02734375 C4.66119141 0.04474609 4.66119141 0.04474609 5.9375 0.0625 C3.16287121 1.58704276 0.83213333 2.39122166 -2.30078125 2.80859375 C-3.52039551 2.97911255 -3.52039551 2.97911255 -4.76464844 3.15307617 C-5.62606445 3.26756104 -6.48748047 3.3820459 -7.375 3.5 C-13.74364538 4.38992406 -20.02313245 5.40725486 -26.3125 6.75 C-31.37718375 7.81043542 -35.90159514 8.37847377 -41.0625 8.0625 C-41.7225 6.4125 -42.3825 4.7625 -43.0625 3.0625 C-39.70380265 2.32211781 -36.51345416 1.90540261 -33.078125 1.78125 C-32.14226562 1.74386719 -31.20640625 1.70648438 -30.2421875 1.66796875 C-29.27539062 1.63316406 -28.30859375 1.59835938 -27.3125 1.5625 C-21.20622734 1.33909978 -15.18375395 1.0030575 -9.11669922 0.27197266 C-6.07345525 -0.03835576 -3.05652375 -0.03217393 0 0 Z " fill="#ECEFFF" transform="translate(264.0625,211.9375)"/>
<path d="M0 0 C1.2375 0.04125 2.475 0.0825 3.75 0.125 C2.41666667 0.79166667 1.08333333 1.45833333 -0.25 2.125 C-0.8422084 2.47228149 -1.43441681 2.81956299 -2.04457092 3.17736816 C-4.75720886 4.34293821 -6.83641626 4.39006576 -9.78686523 4.41210938 C-10.90000595 4.42552368 -12.01314667 4.43893799 -13.16001892 4.45275879 C-14.36404861 4.45803589 -15.56807831 4.46331299 -16.80859375 4.46875 C-18.06269547 4.4833728 -19.31679718 4.49799561 -20.60890198 4.51306152 C-24.63507211 4.55959044 -28.66118946 4.59399126 -32.6875 4.625 C-53.9293375 4.71890327 -53.9293375 4.71890327 -75.12109375 6.01953125 C-76.33870644 6.13204224 -76.33870644 6.13204224 -77.58091736 6.24682617 C-84.07726345 6.93553122 -90.18770449 8.47309092 -96.4140625 10.41796875 C-99.25 11.125 -99.25 11.125 -102.25 10.125 C-100.27422092 9.32491635 -98.29416153 8.53540079 -96.3125 7.75 C-95.21035156 7.30914062 -94.10820312 6.86828125 -92.97265625 6.4140625 C-83.9383689 3.28571536 -75.53355199 2.82181393 -66.08658409 2.78947449 C-63.71965815 2.78110121 -61.35310272 2.76052546 -58.98628235 2.73693848 C-53.11644381 2.68087844 -47.24651588 2.64526781 -41.37652588 2.60931396 C-36.39629424 2.57805455 -31.41624833 2.53888549 -26.43616676 2.48905945 C-24.10737733 2.46903512 -21.7787323 2.46068477 -19.44987488 2.45275879 C-18.02346263 2.43978816 -16.59705524 2.42626811 -15.1706543 2.41210938 C-13.92761032 2.40481812 -12.68456635 2.39752686 -11.40385437 2.39001465 C-7.15146138 2.0326911 -4.31024881 -0.14367496 0 0 Z " fill="#FEFEFF" transform="translate(274.25,201.875)"/>
<path d="M0 0 C2 1 2 1 3.125 3.375 C4.9448888 10.91453932 4.90563246 17.55322141 1.16796875 24.44140625 C0 26 0 26 -3 28 C-5.33199388 28.07905064 -7.66832622 28.08798769 -10 28 C-9.401875 27.13375 -8.80375 26.2675 -8.1875 25.375 C-6.70479912 23.16928597 -5.55766167 21.09831034 -4.375 18.6875 C-3 16 -3 16 -1 15 C-1.01160156 14.41992188 -1.02320313 13.83984375 -1.03515625 13.2421875 C-1.08762174 8.7001754 -0.91751063 4.47286431 0 0 Z " fill="#F6F7FF" transform="translate(307,216)"/>
<path d="M0 0 C3.39125935 3.1651754 5.77589909 5.66403291 6.23046875 10.40234375 C6.08597285 18.92760181 6.08597285 18.92760181 5 23 C5.66 22.34 6.32 21.68 7 21 C7 22.32 7 23.64 7 25 C8.32 25 9.64 25 11 25 C9.84826645 27.46800047 8.95216435 29.04783565 7 31 C4.87109375 31.23046875 4.87109375 31.23046875 2.4375 31.1875 C1.63183594 31.18105469 0.82617188 31.17460937 -0.00390625 31.16796875 C-2 31 -2 31 -3 30 C-4.66617115 29.95936168 -6.33388095 29.957279 -8 30 C-7.4225 29.7525 -6.845 29.505 -6.25 29.25 C-1.74495684 26.74719824 0.3901666 23.8295002 2 19 C2.67338635 12.37506665 1.914241 6.34092332 0 0 Z " fill="#617DFF" transform="translate(308,215)"/>
<path d="M0 0 C7 0 7 0 10 2 C9.0990099 7.66336634 9.0990099 7.66336634 8.375 10.125 C7.92662435 12.36687823 8.3071698 13.84452828 9 16 C7.68 16 6.36 16 5 16 C4.67 14.02 4.34 12.04 4 10 C3.34 10 2.68 10 2 10 C1.67 11.98 1.34 13.96 1 16 C-0.32 16 -1.64 16 -3 16 C-2.01 10.72 -1.02 5.44 0 0 Z " fill="#6C86FF" transform="translate(277,364)"/>
<path d="M0 0 C0.33 0 0.66 0 1 0 C1 2.64 1 5.28 1 8 C1.66 8 2.32 8 3 8 C3.33 7.01 3.66 6.02 4 5 C5.32 5.33 6.64 5.66 8 6 C8 8.97 8 11.94 8 15 C7.67 15 7.34 15 7 15 C7 12.69 7 10.38 7 8 C6.01 8.66 5.02 9.32 4 10 C4.33 11.98 4.66 13.96 5 16 C5.66 16 6.32 16 7 16 C6.67 17.32 6.34 18.64 6 20 C4.5 18.625 4.5 18.625 3 17 C3 16.34 3 15.68 3 15 C2.34 15 1.68 15 1 15 C0.67 16.98 0.34 18.96 0 21 C1.32 21.33 2.64 21.66 4 22 C2.25 22.75 2.25 22.75 0 23 C-2.23343204 21.14944202 -3.70191542 19.59616917 -5 17 C-5.07065617 14.95944995 -5.08421976 12.91665743 -5.0625 10.875 C-5.05347656 9.77929688 -5.04445313 8.68359375 -5.03515625 7.5546875 C-5.02355469 6.71164063 -5.01195312 5.86859375 -5 5 C-4.67 5.99 -4.34 6.98 -4 8 C-2.02 8.495 -2.02 8.495 0 9 C0 6.03 0 3.06 0 0 Z " fill="#F1F4FF" transform="translate(294,219)"/>
<path d="M0 0 C6.39075249 -0.36174071 6.39075249 -0.36174071 9 1.1875 C10 3 10 3 9.8125 5.5625 C9 8 9 8 7 10 C7.66 11.98 8.32 13.96 9 16 C7.68 16 6.36 16 5 16 C4.71125 15.195625 4.4225 14.39125 4.125 13.5625 C3.26737432 10.8673532 3.26737432 10.8673532 1 10 C1 11.98 1 13.96 1 16 C-0.32 16 -1.64 16 -3 16 C-2.68806536 14.27073126 -2.37542638 12.54158956 -2.0625 10.8125 C-1.88847656 9.84957031 -1.71445313 8.88664062 -1.53515625 7.89453125 C-1.0476265 5.25760028 -0.53328895 2.6280095 0 0 Z " fill="#6C86FF" transform="translate(224,364)"/>
<path d="M0 0 C1.65 0 3.3 0 5 0 C6.06723961 3.46222615 6.10173486 6.64039266 6.0625 10.25 C6.05347656 11.32765625 6.04445312 12.4053125 6.03515625 13.515625 C6.02355469 14.33546875 6.01195312 15.1553125 6 16 C5.01 16 4.02 16 3 16 C3 14.68 3 13.36 3 12 C0.56282742 12.27034634 0.56282742 12.27034634 -2 13 C-2.99 14.485 -2.99 14.485 -4 16 C-4.99 16 -5.98 16 -7 16 C-5.35433477 10.31497465 -2.70967216 5.23318364 0 0 Z " fill="#5C79FF" transform="translate(242,364)"/>
<path d="M0 0 C1.32 0 2.64 0 4 0 C5.06723961 3.46222615 5.10173486 6.64039266 5.0625 10.25 C5.05347656 11.32765625 5.04445312 12.4053125 5.03515625 13.515625 C5.02355469 14.33546875 5.01195312 15.1553125 5 16 C4.01 16 3.02 16 2 16 C2 14.68 2 13.36 2 12 C-0.43717258 12.27034634 -0.43717258 12.27034634 -3 13 C-3.99 14.485 -3.99 14.485 -5 16 C-5.99 16 -6.98 16 -8 16 C-6.49233686 10.27088006 -3.78351836 4.58004855 0 0 Z " fill="#5A77FF" transform="translate(212,364)"/>
<path d="M0 0 C1.38077722 0.00063163 2.76165774 0.02313659 4.1418457 0.06347656 C4.87007034 0.06913635 5.59829498 0.07479614 6.34858704 0.08062744 C8.67227194 0.10300128 10.99440902 0.15319488 13.31762695 0.20410156 C14.89377654 0.22416547 16.46995032 0.24241644 18.04614258 0.25878906 C21.90806619 0.30286873 25.76883425 0.37189931 29.63012695 0.45410156 C29.30012695 1.44410156 28.97012695 2.43410156 28.63012695 3.45410156 C16.95459589 4.08250117 5.32603884 4.63101452 -6.36987305 4.45410156 C-4.61900644 1.097548 -3.8314578 0.51630164 0 0 Z " fill="#F4F6FF" transform="translate(164.369873046875,244.5458984375)"/>
<path d="M0 0 C3.375 -0.125 3.375 -0.125 7 0 C9 2 9 2 9.3125 5 C9.1578125 6.485 9.1578125 6.485 9 8 C5.77208445 10.1519437 4.71599191 10.20086443 1 10 C1 11.65 1 13.3 1 15 C-0.32 15.33 -1.64 15.66 -3 16 C-2.69177379 13.7077546 -2.37829126 11.41621545 -2.0625 9.125 C-1.88847656 7.84882813 -1.71445313 6.57265625 -1.53515625 5.2578125 C-1 2 -1 2 0 0 Z " fill="#6E88FF" transform="translate(194,364)"/>
<path d="M0 0 C1.670625 0.061875 1.670625 0.061875 3.375 0.125 C3.375 1.115 3.375 2.105 3.375 3.125 C1.725 3.125 0.075 3.125 -1.625 3.125 C0.12954385 6.30734105 0.12954385 6.30734105 2.375 9.125 C2.5625 11.5625 2.5625 11.5625 2.375 14.125 C0.375 16.125 0.375 16.125 -3.25 16.25 C-4.36375 16.20875 -5.4775 16.1675 -6.625 16.125 C-6.955 15.135 -7.285 14.145 -7.625 13.125 C-5.645 13.125 -3.665 13.125 -1.625 13.125 C-3.37954385 9.94265895 -3.37954385 9.94265895 -5.625 7.125 C-5.8125 4.6875 -5.8125 4.6875 -5.625 2.125 C-3.625 0.125 -3.625 0.125 0 0 Z " fill="#627EFF" transform="translate(305.625,363.875)"/>
<path d="M0 0 C1.670625 0.061875 1.670625 0.061875 3.375 0.125 C3.375 1.115 3.375 2.105 3.375 3.125 C1.725 3.125 0.075 3.125 -1.625 3.125 C-1.150625 3.846875 -0.67625 4.56875 -0.1875 5.3125 C1.34968519 8.07943334 2.20900929 9.97117655 2.375 13.125 C1.375 14.9375 1.375 14.9375 -0.625 16.125 C-4.3125 16.3125 -4.3125 16.3125 -7.625 16.125 C-7.625 15.135 -7.625 14.145 -7.625 13.125 C-5.645 13.125 -3.665 13.125 -1.625 13.125 C-3.37954385 9.94265895 -3.37954385 9.94265895 -5.625 7.125 C-5.8125 4.6875 -5.8125 4.6875 -5.625 2.125 C-3.625 0.125 -3.625 0.125 0 0 Z " fill="#617DFF" transform="translate(259.625,363.875)"/>
<path d="M0 0 C7.26 0 14.52 0 22 0 C18.0739185 3.9260815 15.60536244 5.28687814 10.0625 5.3125 C5.9489347 5.23350982 3.21166931 4.78344673 0 2 C0 1.34 0 0.68 0 0 Z " fill="#607CFF" transform="translate(349,241)"/>
<path d="M0 0 C12.66970387 0.96355353 12.66970387 0.96355353 18 2 C18 2.33 18 2.66 18 3 C14.7 3 11.4 3 8 3 C8 3.33 8 3.66 8 4 C-5.86 3.67 -19.72 3.34 -34 3 C-34 2.67 -34 2.34 -34 2 C-22.78 1.67 -11.56 1.34 0 1 C0 0.67 0 0.34 0 0 Z " fill="#CCD5FF" transform="translate(290,157)"/>
<path d="M0 0 C0 0.33 0 0.66 0 1 C-0.5576001 1.03963867 -1.1152002 1.07927734 -1.68969727 1.12011719 C-12.53718398 1.92685374 -22.75886831 3.04278116 -33.1640625 6.29296875 C-36 7 -36 7 -39 6 C-24.85877946 0.27357066 -15.04993399 -1.27863963 0 0 Z " fill="#D9E0FF" transform="translate(211,206)"/>
<path d="M0 0 C2.3125 0.1875 2.3125 0.1875 5 1 C6.8125 3.5625 6.8125 3.5625 8 6 C7.01 6.33 6.02 6.66 5 7 C4.67 7.66 4.34 8.32 4 9 C-0.47540984 10.26229508 -0.47540984 10.26229508 -3 9 C-3.875 7.25 -3.875 7.25 -4 5 C-2.0625 2.25 -2.0625 2.25 0 0 Z " fill="#A8B8FF" transform="translate(293,218)"/>
<path d="M0 0 C7.88264059 0.75794621 7.88264059 0.75794621 11 4 C11 4.99 11 5.98 11 7 C7.75 7.75 7.75 7.75 4 8 C1.5625 6.3125 1.5625 6.3125 0 4 C0 2.68 0 1.36 0 0 Z " fill="#5875FF" transform="translate(338,208)"/>
<path d="M0 0 C0 0.66 0 1.32 0 2 C-14.01408056 2.21126755 -28.0002519 1.57359761 -42 1 C-42 0.67 -42 0.34 -42 0 C-36.50091272 -0.16760643 -31.00168215 -0.32816705 -25.50219727 -0.48217773 C-23.63104709 -0.53557425 -21.75995098 -0.59090179 -19.88891602 -0.64819336 C-17.2008022 -0.73016978 -14.51257095 -0.80521854 -11.82421875 -0.87890625 C-10.98662521 -0.90594131 -10.14903168 -0.93297638 -9.28605652 -0.96083069 C-5.9091632 -1.04776959 -3.23102004 -1.07700668 0 0 Z " fill="#AEBCFF" transform="translate(332,199)"/>
<path d="M0 0 C0.99 0 1.98 0 3 0 C2.52013969 5.56890517 1.70084819 10.67067568 0 16 C-0.99 16 -1.98 16 -3 16 C-2.57910004 10.39538469 -2.08386889 5.27913453 0 0 Z " fill="#627EFF" transform="translate(293,364)"/>
<path d="M0 0 C0.99 0 1.98 0 3 0 C2.52013969 5.56890517 1.70084819 10.67067568 0 16 C-0.99 16 -1.98 16 -3 16 C-2.57910004 10.39538469 -2.08386889 5.27913453 0 0 Z " fill="#627EFF" transform="translate(269,364)"/>
<path d="M0 0 C1.68359375 1.5546875 1.68359375 1.5546875 3 3 C2.39671875 2.97679687 1.7934375 2.95359375 1.171875 2.9296875 C0.37265625 2.91164062 -0.4265625 2.89359375 -1.25 2.875 C-2.43335938 2.84019531 -2.43335938 2.84019531 -3.640625 2.8046875 C-6.25482266 3.02109459 -7.80262233 3.58358879 -10 5 C-11.10636395 7.39068734 -11.10636395 7.39068734 -12 10 C-12.95824253 11.36365283 -13.94721175 12.70794169 -15 14 C-14.43456084 8.06288879 -12.245081 4.31991703 -8.125 0.0625 C-5.06226741 -1.4688663 -3.22735437 -0.9613396 0 0 Z " fill="#D8DFFF" transform="translate(297,209)"/>
<path d="M0 0 C6.52307692 0.61538462 6.52307692 0.61538462 8.9375 2.5625 C9.288125 3.036875 9.63875 3.51125 10 4 C9.67 4.99 9.34 5.98 9 7 C3.54545455 7.36363636 3.54545455 7.36363636 1.125 5.75 C0 4 0 4 0 0 Z " fill="#5775FF" transform="translate(326,208)"/>
<path d="M0 0 C2.475 0.495 2.475 0.495 5 1 C5 3.97 5 6.94 5 10 C6.32 10.33 7.64 10.66 9 11 C7.25 11.75 7.25 11.75 5 12 C2.76656796 10.14944202 1.29808458 8.59616917 0 6 C-0.039992 4.00039988 -0.04346799 1.99952758 0 0 Z " fill="#D7DEFF" transform="translate(289,230)"/>
<path d="M0 0 C7.03051093 3.19426332 12.3156261 8.99814594 17 15 C16.01 15.33 15.02 15.66 14 16 C12.03909808 13.89817699 10.08121556 11.79367717 8.125 9.6875 C7.56941406 9.09259766 7.01382812 8.49769531 6.44140625 7.88476562 C5.90644531 7.30791016 5.37148438 6.73105469 4.8203125 6.13671875 C4.32805176 5.60780029 3.83579102 5.07888184 3.32861328 4.53393555 C2 3 2 3 0 0 Z " fill="#617DFF" transform="translate(344,177)"/>
<path d="M0 0 C0.33 1.32 0.66 2.64 1 4 C2.32 4 3.64 4 5 4 C3.125 7.875 3.125 7.875 2 9 C-0.67058851 9.14115161 -3.32432238 9.04247107 -6 9 C-5.67 8.34 -5.34 7.68 -5 7 C-4.34 7 -3.68 7 -3 7 C-2.690625 6.21625 -2.38125 5.4325 -2.0625 4.625 C-1 2 -1 2 0 0 Z " fill="#5A78FF" transform="translate(314,236)"/>
<path d="M0 0 C2.64 0 5.28 0 8 0 C8.5625 1.9375 8.5625 1.9375 9 4 C8 5 8 5 6.15234375 5.09765625 C4.1015625 5.06510417 2.05078125 5.03255208 0 5 C0 3.35 0 1.7 0 0 Z " fill="#FBFBFF" transform="translate(242,313)"/>
<path d="M0 0 C2.375 -0.125 2.375 -0.125 5 0 C5.66 0.66 6.32 1.32 7 2 C9.20250992 2.46006346 9.20250992 2.46006346 11.625 2.625 C12.44226563 2.69976562 13.25953125 2.77453125 14.1015625 2.8515625 C14.72804687 2.90054687 15.35453125 2.94953125 16 3 C16 3.33 16 3.66 16 4 C14.329375 4.2165625 14.329375 4.2165625 12.625 4.4375 C9.17857953 4.78372035 9.17857953 4.78372035 7 6 C5.0546875 5.44140625 5.0546875 5.44140625 2.875 4.5625 C2.15054688 4.27503906 1.42609375 3.98757813 0.6796875 3.69140625 C-0.15175781 3.34916016 -0.15175781 3.34916016 -1 3 C-0.67 2.01 -0.34 1.02 0 0 Z " fill="#EBEEFF" transform="translate(143,312)"/>
<path d="M0 0 C3.84375 1.671875 3.84375 1.671875 5.25 4.625 C5.4975 5.40875 5.745 6.1925 6 7 C3.525 8.485 3.525 8.485 1 10 C0 9 0 9 -0.09765625 6.93359375 C-0.08605469 6.10988281 -0.07445312 5.28617188 -0.0625 4.4375 C-0.05347656 3.61121094 -0.04445312 2.78492188 -0.03515625 1.93359375 C-0.02355469 1.29550781 -0.01195312 0.65742188 0 0 Z " fill="#7089FF" transform="translate(214,221)"/>
<path d="M0 0 C0.66 0 1.32 0 2 0 C2 2.97 2 5.94 2 9 C0.35 8.67 -1.3 8.34 -3 8 C-3.33 7.01 -3.66 6.02 -4 5 C-2.1875 2.3125 -2.1875 2.3125 0 0 Z " fill="#637FFF" transform="translate(210,221)"/>
<path d="M0 0 C3.00617269 3.00617269 2.59585316 5.82381598 3 10 C1.02 10 -0.96 10 -3 10 C-2.69201674 8.51988629 -2.378482 7.04092675 -2.0625 5.5625 C-1.88847656 4.73878906 -1.71445312 3.91507812 -1.53515625 3.06640625 C-1 1 -1 1 0 0 Z " fill="#EAEEFF" transform="translate(405,315)"/>
<path d="M0 0 C2.76223278 2.76223278 2.57856291 5.20706617 3 9 C1.02 9 -0.96 9 -3 9 C-2.5020163 5.26512223 -2.12508244 3.18762365 0 0 Z " fill="#EEF1FF" transform="translate(106,316)"/>
<path d="M0 0 C1.9375 0.6875 1.9375 0.6875 4 2 C4.75 4.625 4.75 4.625 5 7 C2.69 7 0.38 7 -2 7 C-1.125 2.25 -1.125 2.25 0 0 Z " fill="#5976FF" transform="translate(212,239)"/>
<path d="M0 0 C0.66 0.33 1.32 0.66 2 1 C2 3.31 2 5.62 2 8 C-0.97 7.505 -0.97 7.505 -4 7 C-3.39816251 4.97954558 -2.72693904 2.97888961 -2 1 C-1.34 0.67 -0.68 0.34 0 0 Z " fill="#90A3FF" transform="translate(212,366)"/>
<path d="M0 0 C2.33944736 0.28730055 4.6739143 0.61936779 7 1 C7.33 1.99 7.66 2.98 8 4 C5.69 4.33 3.38 4.66 1 5 C0.34 3.68 -0.32 2.36 -1 1 C-0.67 0.67 -0.34 0.34 0 0 Z " fill="#EDF0FF" transform="translate(142,325)"/>
<path d="M0 0 C0.1953125 6.0546875 0.1953125 6.0546875 0 8 C-0.66 8.66 -1.32 9.32 -2 10 C-5.05059524 5.60714286 -5.05059524 5.60714286 -4.8125 2.75 C-3.67433137 0.29855987 -2.65058539 0 0 0 Z " fill="#5876FF" transform="translate(221,232)"/>
<path d="M0 0 C2 0 2 0 4.125 2 C4.74375 2.66 5.3625 3.32 6 4 C5.34 5.65 4.68 7.3 4 9 C2.35 8.01 0.7 7.02 -1 6 C-0.67 4.02 -0.34 2.04 0 0 Z " fill="#6E88FF" transform="translate(295,234)"/>
<path d="M0 0 C2.475 0.99 2.475 0.99 5 2 C4.67 3.98 4.34 5.96 4 8 C3.01 8.33 2.02 8.66 1 9 C0.67 6.03 0.34 3.06 0 0 Z " fill="#5774FF" transform="translate(205,232)"/>
<path d="M0 0 C0.66 0 1.32 0 2 0 C2 2.31 2 4.62 2 7 C2.66 7.33 3.32 7.66 4 8 C3.01 9.485 3.01 9.485 2 11 C2 10.01 2 9.02 2 8 C1.34 8 0.68 8 0 8 C-2 5 -2 5 -1.6875 2.875 C-1 1 -1 1 0 0 Z " fill="#738CFF" transform="translate(299,227)"/>
<path d="M0 0 C0 0.66 0 1.32 0 2 C-0.99 2.495 -0.99 2.495 -2 3 C0.97 3.495 0.97 3.495 4 4 C4 4.33 4 4.66 4 5 C2.52093108 5.02689216 1.04172517 5.04634621 -0.4375 5.0625 C-1.67306641 5.07990234 -1.67306641 5.07990234 -2.93359375 5.09765625 C-5 5 -5 5 -6 4 C-7.66617115 3.95936168 -9.33388095 3.957279 -11 4 C-10.1028125 3.566875 -10.1028125 3.566875 -9.1875 3.125 C-3.11111111 0 -3.11111111 0 0 0 Z " fill="#A2B2FF" transform="translate(311,241)"/>
<path d="M0 0 C2.64 0 5.28 0 8 0 C8 1.32 8 2.64 8 4 C5.36 3.67 2.72 3.34 0 3 C0 2.01 0 1.02 0 0 Z " fill="#758EFF" transform="translate(127,232)"/>
<path d="M0 0 C2.97 0.99 5.94 1.98 9 3 C9.33 4.65 9.66 6.3 10 8 C9.278125 7.360625 8.55625 6.72125 7.8125 6.0625 C5.01808816 4.01326465 3.38336726 3.38667054 0 3 C0 2.01 0 1.02 0 0 Z " fill="#CFD8FF" transform="translate(338,205)"/>
<path d="M0 0 C1.70363822 0.22622081 3.41328701 0.40888473 5.125 0.5625 C6.03507812 0.64628906 6.94515625 0.73007813 7.8828125 0.81640625 C8.58148438 0.87699219 9.28015625 0.93757812 10 1 C10 1.33 10 1.66 10 2 C3.73 2 -2.54 2 -9 2 C-9 1.67 -9 1.34 -9 1 C-2.25 -1.125 -2.25 -1.125 0 0 Z " fill="#98AAFF" transform="translate(287,201)"/>
<path d="M0 0 C2.9375 0.75 2.9375 0.75 6 2 C6.875 4.125 6.875 4.125 7 6 C6.34 6 5.68 6 5 6 C5 6.66 5 7.32 5 8 C2.46268636 6.73134318 2.21353154 5.50290879 1 3 C0.34 2.34 -0.32 1.68 -1 1 C-0.67 0.67 -0.34 0.34 0 0 Z " fill="#B8C5FF" transform="translate(332,207)"/>
<path d="M0 0 C0.99 0 1.98 0 3 0 C3 2.31 3 4.62 3 7 C2.34 6.34 1.68 5.68 1 5 C0.01 5.99 -0.98 6.98 -2 8 C-1.34 5.36 -0.68 2.72 0 0 Z " fill="#CFD8FF" transform="translate(313,233)"/>
<path d="M0 0 C1.98 0.99 1.98 0.99 4 2 C3.34 3.65 2.68 5.3 2 7 C1.34 7 0.68 7 0 7 C0 4.69 0 2.38 0 0 Z " fill="#6883FF" transform="translate(295,220)"/>
<path d="M0 0 C-1.33333333 0.66666667 -2.66666667 1.33333333 -4 2 C-4.680625 2.391875 -5.36125 2.78375 -6.0625 3.1875 C-8 4 -8 4 -11 3 C-8.21756596 -1.17365106 -4.53441502 -0.22300402 0 0 Z " fill="#E2E7FF" transform="translate(278,202)"/>
<path d="M0 0 C0 0.66 0 1.32 0 2 C-3.3 2 -6.6 2 -10 2 C-9.67 1.34 -9.34 0.68 -9 0 C-5.44307323 -0.85056945 -3.50729422 -1.16909807 0 0 Z " fill="#9DAEFF" transform="translate(332,199)"/>
<path d="M0 0 C0.33 0 0.66 0 1 0 C1 2.31 1 4.62 1 7 C-0.32 7 -1.64 7 -3 7 C-1.125 1.125 -1.125 1.125 0 0 Z " fill="#BDC9FF" transform="translate(244,367)"/>
<path d="M0 0 C1.32 0.33 2.64 0.66 4 1 C3.34 2.98 2.68 4.96 2 7 C0 5 0 5 -0.125 2.375 C-0.08375 1.59125 -0.0425 0.8075 0 0 Z " fill="#607CFF" transform="translate(290,230)"/>
<path d="M0 0 C0 0.33 0 0.66 0 1 C-1.98 1 -3.96 1 -6 1 C-6 1.99 -6 2.98 -6 4 C-6.99 4 -7.98 4 -9 4 C-9 3.34 -9 2.68 -9 2 C-9.66 1.67 -10.32 1.34 -11 1 C-7.32589215 -0.17571451 -3.83070817 -0.07366746 0 0 Z " fill="#E0E5FF" transform="translate(262,157)"/>
</svg>
